<?xml version="1.0" encoding="UTF-8" standalone="no"?>
<!-- Created with Inkscape (http://www.inkscape.org/) -->

<svg
   xmlns:dc="http://purl.org/dc/elements/1.1/"
   xmlns:cc="http://creativecommons.org/ns#"
   xmlns:rdf="http://www.w3.org/1999/02/22-rdf-syntax-ns#"
   xmlns:svg="http://www.w3.org/2000/svg"
   xmlns="http://www.w3.org/2000/svg"
   xmlns:xlink="http://www.w3.org/1999/xlink"
   xmlns:sodipodi="http://sodipodi.sourceforge.net/DTD/sodipodi-0.dtd"
   xmlns:inkscape="http://www.inkscape.org/namespaces/inkscape"
   version="1.1"
   width="800"
   height="600"
   id="svg2"
   inkscape:version="0.48.5 r10040"
   sodipodi:docname="logo-pyqt.svg"
   inkscape:export-filename="D:\Users\penac1\Dropbox (Personal)\it\repos\git\website\content\images\logo-pyqt.png"
   inkscape:export-xdpi="35.15625"
   inkscape:export-ydpi="35.15625">
  <sodipodi:namedview
     pagecolor="#ffffff"
     bordercolor="#666666"
     borderopacity="1"
     objecttolerance="10"
     gridtolerance="10"
     guidetolerance="10"
     inkscape:pageopacity="0"
     inkscape:pageshadow="2"
     inkscape:window-width="1366"
     inkscape:window-height="749"
     id="namedview26"
     showgrid="false"
     inkscape:zoom="0.65186406"
     inkscape:cx="484.10247"
     inkscape:cy="317.63155"
     inkscape:window-x="-4"
     inkscape:window-y="176"
     inkscape:window-maximized="1"
     inkscape:current-layer="g3815" />
  <metadata
     id="metadata24">
    <rdf:RDF>
      <cc:Work
         rdf:about="">
        <dc:format>image/svg+xml</dc:format>
        <dc:type
           rdf:resource="http://purl.org/dc/dcmitype/StillImage" />
        <dc:title />
      </cc:Work>
    </rdf:RDF>
  </metadata>
  <defs
     id="defs4">
    <linearGradient
       x1="55.549179"
       y1="77.070274"
       x2="110.14919"
       y2="131.85291"
       id="linearGradient9521"
       xlink:href="#linearGradient9515"
       gradientUnits="userSpaceOnUse" />
    <linearGradient
       id="linearGradient9515">
      <stop
         id="stop9517"
         style="stop-color:#7cc040;stop-opacity:1"
         offset="0" />
      <stop
         id="stop9519"
         style="stop-color:#659c34;stop-opacity:1"
         offset="1" />
    </linearGradient>
    <linearGradient
       x1="89.136749"
       y1="111.92053"
       x2="147.77737"
       y2="168.1012"
       id="linearGradient11307"
       xlink:href="#linearGradient11301"
       gradientUnits="userSpaceOnUse" />
    <linearGradient
       id="linearGradient11301">
      <stop
         id="stop11303"
         style="stop-color:#659c34;stop-opacity:1"
         offset="0" />
      <stop
         id="stop11305"
         style="stop-color:#7cc040;stop-opacity:1"
         offset="1" />
    </linearGradient>
    <linearGradient
       x1="55.549179"
       y1="77.070274"
       x2="110.14919"
       y2="131.85291"
       id="linearGradient3010"
       xlink:href="#linearGradient9515"
       gradientUnits="userSpaceOnUse" />
    <linearGradient
       x1="89.136749"
       y1="111.92053"
       x2="147.77737"
       y2="168.1012"
       id="linearGradient3012"
       xlink:href="#linearGradient11301"
       gradientUnits="userSpaceOnUse" />
    <linearGradient
       x1="55.549179"
       y1="77.070274"
       x2="110.14919"
       y2="131.85291"
       id="linearGradient3022"
       xlink:href="#linearGradient9515"
       gradientUnits="userSpaceOnUse" />
    <linearGradient
       x1="89.136749"
       y1="111.92053"
       x2="147.77737"
       y2="168.1012"
       id="linearGradient3024"
       xlink:href="#linearGradient11301"
       gradientUnits="userSpaceOnUse" />
    <linearGradient
       x1="55.549179"
       y1="77.070274"
       x2="110.14919"
       y2="131.85291"
       id="linearGradient3029"
       xlink:href="#linearGradient9515"
       gradientUnits="userSpaceOnUse" />
    <linearGradient
       x1="89.136749"
       y1="111.92053"
       x2="147.77737"
       y2="168.1012"
       id="linearGradient3031"
       xlink:href="#linearGradient11301"
       gradientUnits="userSpaceOnUse" />
    <linearGradient
       x1="55.549179"
       y1="77.070274"
       x2="110.14919"
       y2="131.85291"
       id="linearGradient3037"
       xlink:href="#linearGradient9515"
       gradientUnits="userSpaceOnUse"
       gradientTransform="matrix(2.3183964,0,0,2.3305334,-104.18276,-157.2379)" />
    <linearGradient
       x1="64.159966"
       y1="160.37045"
       x2="258.00021"
       y2="160.37045"
       id="linearGradient3813"
       xlink:href="#linearGradient11301"
       gradientUnits="userSpaceOnUse"
       gradientTransform="translate(2.0000358,1.99972)" />
    <linearGradient
       x1="55.549179"
       y1="77.070274"
       x2="110.14919"
       y2="131.85291"
       id="linearGradient3819"
       xlink:href="#linearGradient9515"
       gradientUnits="userSpaceOnUse"
       gradientTransform="matrix(4.5281169,0,0,4.5518176,-51.138472,-605.69493)" />
    <linearGradient
       x1="64.159966"
       y1="160.37045"
       x2="258.00021"
       y2="160.37045"
       id="linearGradient3821"
       xlink:href="#linearGradient11301"
       gradientUnits="userSpaceOnUse"
       gradientTransform="matrix(1.9531246,0,0,1.9531246,156.24976,-294.68456)" />
  </defs>
  <g
     transform="matrix(0.98461515,0,0,0.98467492,2.7573489e-6,343.98458)"
     id="g3815">
    <path
       d="m 400.54119,-298.58949 c -126.93095,1e-5 -119.00457,55.33304 -119.00457,55.33304 l 0.14151,57.32446 121.12713,0 0,17.21155 -169.23838,0 c 0,0 -81.2231,-9.25965 -81.2231,119.485222 -1e-5,128.74483 70.89333,124.17927 70.89333,124.17927 l 42.3096,0 0,-59.742609 c 0,0 -2.28059,-71.264387 69.7613,-71.264387 72.04189,0 120.13661,0 120.13661,0 0,0 67.49723,1.096795 67.49723,-65.574626 0,-66.67141 0,-110.23934 0,-110.23934 0,-1e-5 10.24795,-66.71258 -122.40066,-66.71258 z m -66.78972,38.54821 c 12.05126,-1e-5 21.79157,9.79129 21.79157,21.90563 0,12.11433 -9.74031,21.90562 -21.79157,21.90562 -12.05126,1e-5 -21.79156,-9.79129 -21.79156,-21.90562 -10e-6,-12.11434 9.7403,-21.90563 21.79156,-21.90563 z"
       id="path8615"
       style="color:#000000;fill:url(#linearGradient3819);fill-opacity:1;fill-rule:nonzero;stroke:none;stroke-width:1;marker:none;visibility:visible;display:inline;overflow:visible"
       inkscape:connector-curvature="0" />
    <path
       d="m 408.05237,205.31563 c 126.93098,0 119.00456,-55.33304 119.00456,-55.33304 l -0.14121,-57.324438 -121.12714,0 0,-17.21156 169.23838,0 c 0,0 81.22308,9.25962 81.22308,-119.485273 6e-5,-128.744819 -70.89332,-124.179259 -70.89332,-124.179259 l -42.3096,0 0,59.7426 c 0,0 2.28064,71.264385 -69.76129,71.264385 -72.0419,0 -120.13662,0 -120.13662,0 0,0 -67.49725,-1.096795 -67.49725,65.574668 0,66.671389 0,110.239347 0,110.239347 0,0 -10.24794,66.71257 122.40068,66.71257 z m 66.78971,-38.54819 c -12.05127,0 -21.79156,-9.79128 -21.79156,-21.90564 0,-12.11435 9.74029,-21.90562 21.79156,-21.90562 12.05126,0 21.79157,9.79127 21.79157,21.90562 4e-5,12.11436 -9.74031,21.90564 -21.79157,21.90564 z"
       id="path8620"
       style="color:#000000;fill:none;stroke:url(#linearGradient3821);stroke-width:7.81249428;stroke-linejoin:miter;stroke-miterlimit:4;stroke-opacity:1;stroke-dasharray:none;marker:none;visibility:visible;display:inline;overflow:visible"
       inkscape:connector-curvature="0" />
  </g>
</svg>
